<svg xmlns="http://www.w3.org/2000/svg" viewBox="0 0 292 292"><title>Asset 8</title><g id="Layer_2" data-name="Layer 2"><g id="Layer_2-2" data-name="Layer 2"><path d="M253.37,185.06l29.8-29.81a13.08,13.08,0,0,0,0-18.5L253.37,107a13.06,13.06,0,0,1-3.83-9.25V55.55a13.08,13.08,0,0,0-13.09-13.08H194.31a13.05,13.05,0,0,1-9.25-3.84L155.25,8.83a13.08,13.08,0,0,0-18.5,0L107,38.63a13.07,13.07,0,0,1-9.25,3.84H55.55A13.07,13.07,0,0,0,42.47,55.55V97.7A13.07,13.07,0,0,1,38.63,107l-29.8,29.8a13.08,13.08,0,0,0,0,18.5l29.8,29.81a13.05,13.05,0,0,1,3.84,9.25v42.14a13.08,13.08,0,0,0,13.08,13.09H97.7a13.06,13.06,0,0,1,9.25,3.83l29.8,29.8a13.08,13.08,0,0,0,18.5,0l29.81-29.8a13,13,0,0,1,9.25-3.83h42.14a13.09,13.09,0,0,0,13.09-13.09V194.31A13,13,0,0,1,253.37,185.06Z" fill="#012c4c" stroke="#eadb85" stroke-miterlimit="10" stroke-width="10"/></g></g></svg>