<?xml version="1.0" encoding="UTF-8"?>
<svg xmlns="http://www.w3.org/2000/svg" xmlns:xlink="http://www.w3.org/1999/xlink" viewBox="0 0 64 64" version="1.1">
<g id="surface1">
<path style=" stroke:none;fill-rule:nonzero;fill:#ED7899;fill-opacity:1;" d="M 56.398438 11.398438 C 50.300781 5.300781 40.5 5.300781 34.398438 11.398438 L 31.699219 14 L 29 11.398438 C 22.898438 5.300781 13.101563 5.300781 7 11.398438 C 0.898438 17.5 0.898438 27.300781 7 33.398438 L 31.398438 57.898438 L 31.699219 57.601563 L 32 57.898438 L 56.398438 33.5 C 62.5 27.300781 62.5 17.398438 56.398438 11.398438 Z "/>
<path style=" stroke:none;fill-rule:nonzero;fill:#F283A5;fill-opacity:1;" d="M 18.601563 17.601563 L 23.5 22.5 L 31.601563 14.398438 L 26.699219 9.5 C 24.5 7.300781 20.800781 7.300781 18.601563 9.5 C 16.300781 11.699219 16.300781 15.300781 18.601563 17.601563 Z "/>
<path style=" stroke:none;fill-rule:nonzero;fill:#E0678F;fill-opacity:1;" d="M 49.5 24.601563 L 28.101563 46 C 27 47.101563 26.300781 48.699219 26.300781 50.199219 C 26.300781 51.800781 26.898438 53.300781 28.101563 54.398438 L 31.601563 57.898438 L 57.199219 32.300781 C 59.300781 30.199219 59.300781 26.699219 57.199219 24.5 C 55.101563 22.398438 51.601563 22.398438 49.5 24.601563 Z "/>
<path style=" stroke:none;fill-rule:nonzero;fill:#8D6C9F;fill-opacity:1;" d="M 57.199219 10.800781 C 50.699219 4.300781 40.199219 4.300781 33.800781 10.800781 L 32 12.601563 L 30.199219 10.800781 C 23.699219 4.300781 13.199219 4.300781 6.800781 10.800781 C 3.601563 14 1.898438 18.101563 1.898438 22.601563 C 1.898438 27 3.601563 31.199219 6.699219 34.300781 L 26.5 54 C 26.5 54 26.5 54.101563 26.601563 54.101563 L 28 55.5 C 28 55.5 28.101563 55.5 28.101563 55.601563 L 29.898438 57.398438 C 30.5 58 31.199219 58.300781 32 58.300781 C 32.800781 58.300781 33.601563 58 34.101563 57.398438 L 57.199219 34.300781 C 60.300781 31.101563 62 27 62 22.601563 C 62 18.101563 60.300781 14 57.199219 10.800781 Z M 55.699219 32.800781 L 32.699219 55.898438 C 32.300781 56.300781 31.699219 56.300781 31.300781 55.898438 L 8.101563 32.800781 C 5.398438 30.101563 3.800781 26.398438 3.800781 22.5 C 3.800781 18.601563 5.398438 15 8.199219 12.300781 C 11 9.398438 14.699219 8 18.398438 8 C 22.101563 8 25.898438 9.398438 28.699219 12.300781 L 30.5 14.101563 L 28.300781 16.300781 C 27.898438 16.699219 27.898438 17.300781 28.300781 17.699219 C 28.5 17.898438 28.800781 18 29 18 C 29.199219 18 29.5 17.898438 29.699219 17.699219 L 33.800781 13.601563 L 35.199219 12.199219 C 40.898438 6.5 50.101563 6.5 55.800781 12.199219 C 58.5 15 60 18.699219 60 22.601563 C 60 26.5 58.5 30.101563 55.699219 32.800781 Z "/>
<path style=" stroke:none;fill-rule:nonzero;fill:#8D6C9F;fill-opacity:1;" d="M 25.300781 19.300781 L 23.300781 21.300781 C 22.898438 21.699219 22.898438 22.300781 23.300781 22.699219 C 23.5 22.898438 23.800781 23 24 23 C 24.199219 23 24.5 22.898438 24.699219 22.699219 L 26.699219 20.699219 C 27.101563 20.300781 27.101563 19.699219 26.699219 19.300781 C 26.300781 18.898438 25.699219 18.898438 25.300781 19.300781 Z "/>
<path style=" stroke:none;fill-rule:nonzero;fill:#8D6C9F;fill-opacity:1;" d="M 31.5 49.101563 C 31.101563 48.699219 30.5 48.699219 30.101563 49.101563 C 29.699219 49.5 29.699219 50.101563 30.101563 50.5 L 31.5 51.898438 C 31.699219 52.101563 32 52.199219 32.199219 52.199219 C 32.398438 52.199219 32.699219 52.101563 32.898438 51.898438 C 33.300781 51.5 33.300781 50.898438 32.898438 50.5 Z "/>
<path style=" stroke:none;fill-rule:nonzero;fill:#8D6C9F;fill-opacity:1;" d="M 35 45.601563 C 34.601563 45.199219 34 45.199219 33.601563 45.601563 C 33.199219 46 33.199219 46.601563 33.601563 47 L 35 48.398438 C 35.199219 48.601563 35.5 48.699219 35.699219 48.699219 C 35.898438 48.699219 36.199219 48.601563 36.398438 48.398438 C 36.800781 48 36.800781 47.398438 36.398438 47 Z "/>
<path style=" stroke:none;fill-rule:nonzero;fill:#8D6C9F;fill-opacity:1;" d="M 38.5 42 C 38.101563 41.601563 37.5 41.601563 37.101563 42 C 36.699219 42.398438 36.699219 43 37.101563 43.398438 L 38.5 44.800781 C 38.699219 45 39 45.101563 39.199219 45.101563 C 39.398438 45.101563 39.699219 45 39.898438 44.800781 C 40.300781 44.398438 40.300781 43.800781 39.898438 43.398438 Z "/>
<path style=" stroke:none;fill-rule:nonzero;fill:#8D6C9F;fill-opacity:1;" d="M 42.101563 38.5 C 41.699219 38.101563 41.101563 38.101563 40.699219 38.5 C 40.300781 38.898438 40.300781 39.5 40.699219 39.898438 L 42.101563 41.300781 C 42.300781 41.5 42.601563 41.601563 42.800781 41.601563 C 43 41.601563 43.300781 41.5 43.5 41.300781 C 43.898438 40.898438 43.898438 40.300781 43.5 39.898438 Z "/>
<path style=" stroke:none;fill-rule:nonzero;fill:#8D6C9F;fill-opacity:1;" d="M 45.601563 35 C 45.199219 34.601563 44.601563 34.601563 44.199219 35 C 43.800781 35.398438 43.800781 36 44.199219 36.398438 L 45.601563 37.800781 C 45.800781 38 46.101563 38.101563 46.300781 38.101563 C 46.5 38.101563 46.800781 38 47 37.800781 C 47.398438 37.398438 47.398438 36.800781 47 36.398438 Z "/>
<path style=" stroke:none;fill-rule:nonzero;fill:#8D6C9F;fill-opacity:1;" d="M 49.101563 31.398438 C 48.699219 31 48.101563 31 47.699219 31.398438 C 47.300781 31.800781 47.300781 32.398438 47.699219 32.800781 L 49.101563 34.199219 C 49.300781 34.398438 49.601563 34.5 49.800781 34.5 C 50 34.5 50.300781 34.398438 50.5 34.199219 C 50.898438 33.800781 50.898438 33.199219 50.5 32.800781 Z "/>
<path style=" stroke:none;fill-rule:nonzero;fill:#8D6C9F;fill-opacity:1;" d="M 52.699219 27.898438 C 52.300781 27.5 51.699219 27.5 51.300781 27.898438 C 50.898438 28.300781 50.898438 28.898438 51.300781 29.300781 L 52.699219 30.699219 C 52.898438 30.898438 53.199219 31 53.398438 31 C 53.601563 31 53.898438 30.898438 54.101563 30.699219 C 54.5 30.300781 54.5 29.699219 54.101563 29.300781 Z "/>
</g>
</svg>
