<svg xmlns="http://www.w3.org/2000/svg" viewBox="0 0 84.71 75.26"><title>surface1 (4)</title><g id="Layer_2" data-name="Layer 2"><g id="Layer_2-2" data-name="Layer 2"><g id="surface1"><path d="M47.07,0A37.64,37.64,0,0,0,9.51,36.4L5.38,32.27a3.16,3.16,0,0,0-2.23-1,3.17,3.17,0,0,0-2.92,2A3.13,3.13,0,0,0,1,36.71L12.58,48.34,24.2,36.71a3.14,3.14,0,1,0-4.43-4.44l-4,4a31.28,31.28,0,1,1,7.58,21.9,3.16,3.16,0,0,0-3-1.1,3.15,3.15,0,0,0-1.74,5.22A37.64,37.64,0,1,0,47.07,0ZM38.71,19a2.51,2.51,0,0,0-2.43,2.5V53.72A2.48,2.48,0,0,0,40,55.89L69.66,39.43a2.05,2.05,0,0,0,0-3.6L40,19.37A2.48,2.48,0,0,0,38.71,19Z" fill="#eadb85"/></g></g></g></svg>