<svg xmlns="http://www.w3.org/2000/svg" viewBox="0 0 68.02 77.75"><title>surface1 (2)</title><g id="Layer_2" data-name="Layer 2"><g id="Layer_2-2" data-name="Layer 2"><g id="surface1"><path d="M48.59,0a4.87,4.87,0,0,0-4.86,4.86V28.54L9.25,1.21A6.46,6.46,0,0,0,3,1.5,6.27,6.27,0,0,0,0,6.82V70.91a6.29,6.29,0,0,0,3,5.32,6.58,6.58,0,0,0,3.35.9,6.51,6.51,0,0,0,2.87-.59L43.73,49.19V72.88a4.88,4.88,0,0,0,4.86,4.87H63.16A4.88,4.88,0,0,0,68,72.88v-68A4.87,4.87,0,0,0,63.16,0Z" fill="#eadb85"/></g></g></g></svg>