<svg xmlns="http://www.w3.org/2000/svg" xmlns:xlink="http://www.w3.org/1999/xlink" viewBox="0 0 81.69 75.08"><defs><linearGradient id="linear-gradient" y1="37.54" x2="81.69" y2="37.54" gradientUnits="userSpaceOnUse"><stop offset="0.56" stop-color="#002d4e"/><stop offset="1" stop-color="#001729"/></linearGradient></defs><title>surface1 (6)</title><g id="Layer_2" data-name="Layer 2"><g id="Layer_2-2" data-name="Layer 2"><g id="surface1"><path d="M37.8,0a4.55,4.55,0,0,0-3.14,1.47l-18,20.33H3.14A3.14,3.14,0,0,0,0,24.94V50.07a3.14,3.14,0,0,0,3.14,3.14H16.69L34.56,73.44c3.14,3.14,6.29,1.53,6.29-2.74V3.83C40.85,1.33,39.48,0,37.8,0ZM60.58,6.28A3.15,3.15,0,0,0,58,9a3.19,3.19,0,0,0,1.9,3.26,28.26,28.26,0,0,1,0,50.45,3.15,3.15,0,1,0,2.76,5.61,34.48,34.48,0,0,0,0-61.66,3.08,3.08,0,0,0-1.77-.4ZM53.11,18.46a3.14,3.14,0,0,0-1.27,5.89c4.85,3,7.85,7.78,7.85,13.16s-3,10.24-7.95,13.25a3.18,3.18,0,0,0-1.68,2.83,3.16,3.16,0,0,0,5,2.48C61.59,52.08,66,45.29,66,37.51S61.63,23,55.18,18.94a3.21,3.21,0,0,0-1.77-.48Z" fill="url(#linear-gradient)"/></g></g></g></svg>