<svg xmlns="http://www.w3.org/2000/svg" viewBox="0 0 68.8 78.65"><title>surface1</title><g id="Layer_2" data-name="Layer 2"><g id="Layer_2-2" data-name="Layer 2"><g id="surface1"><path d="M4.91,0A4.91,4.91,0,0,0,0,4.91V73.72a4.93,4.93,0,0,0,4.91,4.93H19.65a4.94,4.94,0,0,0,4.92-4.93v-24L59.45,77.42a6.55,6.55,0,0,0,6.29-.31,6.31,6.31,0,0,0,3.06-5.38V6.9a6.36,6.36,0,0,0-3.06-5.38A6.67,6.67,0,0,0,62.37.6a6.28,6.28,0,0,0-2.92.63L24.57,28.87v-24A4.92,4.92,0,0,0,19.65,0Z" fill="#eadb85"/></g></g></g></svg>